<svg xmlns="http://www.w3.org/2000/svg" version="1.1" xmlns:xlink="http://www.w3.org/1999/xlink" xmlns:svgjs="http://svgjs.dev/svgjs" width="1920" height="1080" preserveAspectRatio="none" viewBox="0 0 1920 1080"><g mask="url(&quot;#SvgjsMask1041&quot;)" fill="none"><rect width="1920" height="1080" x="0" y="0" fill="rgba(46, 7, 63, 1)"></rect><path d="M0,889.706C174.235,887.46,375.575,899.866,499.744,777.617C623.255,656.015,558.509,444.966,617.325,281.923C669.275,137.915,807.096,33.947,822.946,-118.322C840.913,-290.924,809.287,-473.028,710.783,-615.897C607.382,-765.869,448.818,-884.519,270.159,-920.077C96.847,-954.571,-74.137,-874.85,-236.184,-804.37C-381.75,-741.059,-510.03,-651.93,-616.684,-534.36C-725.323,-414.602,-830.771,-282.8,-854.427,-122.848C-878.124,37.38,-803.527,189.284,-746.105,340.735C-684.716,502.647,-647.566,687.986,-508.093,790.608C-366.232,894.987,-176.108,891.976,0,889.706" fill="#22052e"></path><path d="M1920 1675.4099999999999C2041.5529999999999 1658.5320000000002 2176.784 1706.5140000000001 2278.785 1638.281 2380.457 1570.268 2388.425 1427.862 2448.958 1321.567 2517.158 1201.807 2648.935 1111.605 2657.06 974.027 2665.553 830.227 2581.339 697.3199999999999 2492.524 583.906 2400.556 466.46500000000003 2288.263 354.88300000000004 2143.629 318.39099999999996 2000.976 282.399 1854.838 337.115 1716.871 388.20500000000004 1586.776 436.38 1474.204 511.54100000000005 1371.17 604.4359999999999 1255.594 708.639 1119.0810000000001 808.28 1083.038 959.663 1046.071 1114.9279999999999 1103.806 1277.495 1177.171 1419.239 1248.205 1556.478 1344.817 1697.301 1490.907 1747.681 1630.862 1795.946 1773.363 1695.771 1920 1675.4099999999999" fill="#3a0950"></path></g><defs><mask id="SvgjsMask1041"><rect width="1920" height="1080" fill="#ffffff"></rect></mask></defs></svg>