<svg xmlns="http://www.w3.org/2000/svg" version="1.1" xmlns:xlink="http://www.w3.org/1999/xlink"
    xmlns:svgjs="http://svgjs.dev/svgjs" width="1920" height="1080" preserveAspectRatio="none"
    viewBox="0 0 1920 1080">
    <g mask="url(&quot;#SvgjsMask1025&quot;)" fill="none">
        <rect width="1920" height="1080" x="0" y="0" fill="rgba(255, 255, 255, 1)"></rect>
        <path
            d="M37.834184359249434-136.6972789294319L-119.24413260056377 146.67950618373231 164.13265251260043 303.7578231435455 321.21096947241364 20.38103803038132z"
            fill="rgba(65, 28, 142, 0.4)" class="triangle-float1"></path>
        <path d="M-124.6 -19.41 a105.19 105.19 0 1 0 210.38 0 a105.19 105.19 0 1 0 -210.38 0z"
            fill="rgba(65, 28, 142, 0.4)" class="triangle-float3"></path>
        <path
            d="M173.8845726811989-137.884572681199L-106.70765814495923 24.11542731880104 335.88457268119896 142.70765814495914z"
            fill="rgba(65, 28, 142, 0.4)" class="triangle-float1"></path>
        <path
            d="M1888.988,429.965C1976.583,432.645,2059.621,384.67,2101.698,307.796C2142.28,233.654,2127.597,144.824,2085.03,71.803C2042.815,-0.614,1972.802,-58.331,1888.988,-57.098C1806.9,-55.89,1741.845,5.27,1702.689,77.428C1665.532,145.903,1661.289,226.554,1697.689,295.435C1736.727,369.307,1805.474,427.41,1888.988,429.965"
            fill="rgba(65, 28, 142, 0.4)" class="triangle-float1"></path>
        <path
            d="M1869.636,393.291C1944.795,389.319,1997.201,326.139,2032.504,259.668C2065.189,198.125,2076.691,126.506,2044.012,64.96C2009.286,-0.44,1943.656,-45.059,1869.636,-47.066C1792.111,-49.168,1718.014,-11.441,1678.071,55.036C1636.923,123.517,1634.573,209.101,1673.943,278.619C1713.876,349.13,1788.716,397.568,1869.636,393.291"
            fill="rgba(65, 28, 142, 0.4)" class="triangle-float2"></path>
        <path d="M1581.85 -21.85 a100.3 100.3 0 1 0 200.6 0 a100.3 100.3 0 1 0 -200.6 0z"
            fill="rgba(65, 28, 142, 0.4)" class="triangle-float2"></path>
        <path d="M-105.1 825.11 a66.21 66.21 0 1 0 132.42 0 a66.21 66.21 0 1 0 -132.42 0z"
            fill="rgba(65, 28, 142, 0.4)" class="triangle-float3"></path>
        <path
            d="M-146.4033711027004 963.116038519799L74.56409755754905 1200.0746378444103 90.55522822191094 742.1485698595495z"
            fill="rgba(65, 28, 142, 0.4)" class="triangle-float2"></path>
        <path
            d="M172.844,1276.93C251.397,1276.566,299.354,1200.591,338.741,1132.625C378.288,1064.383,418.159,986.188,381.938,916.124C343.594,841.953,256.273,808.387,172.844,811.725C95.015,814.838,26.937,862.742,-9.151,931.769C-42.728,995.993,-29.535,1070.068,4.266,1134.173C41.076,1203.984,93.924,1277.295,172.844,1276.93"
            fill="rgba(65, 28, 142, 0.4)" class="triangle-float1"></path>
        <path
            d="M1987.9851274063315 1053.3217986260593L1999.2896939548073 837.6178191190712 1670.0814414200872 928.5129590498515z"
            fill="rgba(65, 28, 142, 0.4)" class="triangle-float3"></path>
        <path
            d="M1979.14,1480.775C2095.266,1477.893,2191.313,1395.572,2243.843,1291.966C2291.485,1198,2276.834,1088.918,2224.042,997.746C2171.383,906.805,2084.202,837.097,1979.14,834.826C1870.36,832.475,1772.029,893.97,1715.188,986.747C1655.485,1084.197,1636.804,1204.894,1690.66,1305.694C1747.473,1412.028,1858.617,1483.766,1979.14,1480.775"
            fill="rgba(65, 28, 142, 0.4)" class="triangle-float3"></path>
        <path
            d="M1887.517,1260.174C1962.418,1256.434,2029.688,1216.195,2066.83,1151.044C2103.61,1086.528,2103.074,1008.765,2068.231,943.182C2030.95,873.012,1966.975,813.181,1887.517,813.536C1808.524,813.889,1750.079,876.963,1709.576,944.783C1667.699,1014.905,1634.116,1099.512,1674.249,1170.647C1714.854,1242.617,1804.986,1264.295,1887.517,1260.174"
            fill="rgba(65, 28, 142, 0.4)" class="triangle-float2"></path>
    </g>
    <defs>
        <mask id="SvgjsMask1025">
            <rect width="1920" height="1080" fill="#ffffff"></rect>
        </mask>
        <style>
            @keyframes float1 {
            0%{transform: translate(0, 0)}
            50%{transform: translate(-10px, 0)}
            100%{transform: translate(0, 0)}
            }

            .triangle-float1 {
            animation: float1 5s infinite;
            }

            @keyframes float2 {
            0%{transform: translate(0, 0)}
            50%{transform: translate(-5px, -5px)}
            100%{transform: translate(0, 0)}
            }

            .triangle-float2 {
            animation: float2 4s infinite;
            }

            @keyframes float3 {
            0%{transform: translate(0, 0)}
            50%{transform: translate(0, -10px)}
            100%{transform: translate(0, 0)}
            }

            .triangle-float3 {
            animation: float3 6s infinite;
            }
        </style>
    </defs>
</svg>